<?xml version="1.0" encoding="utf-8"?>
<!-- Generator: Adobe Illustrator 16.2.0, SVG Export Plug-In . SVG Version: 6.00 Build 0)  -->
<svg version="1.2" baseProfile="tiny" id="Layer_1" xmlns="http://www.w3.org/2000/svg" xmlns:xlink="http://www.w3.org/1999/xlink"
	 x="0px" y="0px" width="100px" height="100px" viewBox="0 0 100 100" xml:space="preserve">
<g>
	<path fill="#A5A5A5" d="M23.188,28.094c-0.474,0-0.938,0.191-1.271,0.527c-0.334,0.334-0.527,0.798-0.527,1.269
		c0,0.472,0.192,0.937,0.527,1.269c0.333,0.335,0.798,0.526,1.271,0.526c0.472,0,0.934-0.191,1.268-0.526
		c0.336-0.333,0.526-0.797,0.526-1.269c0-0.471-0.19-0.935-0.526-1.269C24.125,28.285,23.661,28.094,23.188,28.094z"/>
	<path fill="#A5A5A5" d="M23.187,34.796c-0.472,0-0.937,0.192-1.27,0.527c-0.334,0.335-0.527,0.798-0.527,1.271
		c0,0.472,0.192,0.935,0.527,1.269c0.333,0.335,0.798,0.526,1.27,0.526c0.474,0,0.936-0.191,1.27-0.526
		c0.335-0.334,0.526-0.797,0.526-1.269c0-0.473-0.191-0.935-0.526-1.271C24.123,34.988,23.661,34.796,23.187,34.796z"/>
	<path fill="#A5A5A5" d="M23.187,41.5c-0.472,0-0.937,0.193-1.27,0.527c-0.334,0.333-0.527,0.796-0.527,1.271
		c0,0.471,0.192,0.933,0.527,1.269c0.333,0.334,0.798,0.527,1.27,0.527c0.474,0,0.936-0.193,1.27-0.527
		c0.335-0.336,0.526-0.798,0.526-1.269c0-0.474-0.191-0.938-0.526-1.271C24.123,41.692,23.661,41.5,23.187,41.5z"/>
	<path fill="#DA0016" d="M23.187,48.203c-0.472,0-0.937,0.191-1.27,0.527c-0.334,0.333-0.527,0.795-0.527,1.269
		c0,0.471,0.192,0.935,0.527,1.271c0.333,0.334,0.798,0.527,1.27,0.527c0.474,0,0.936-0.192,1.27-0.527
		c0.335-0.335,0.526-0.8,0.526-1.271c0-0.474-0.191-0.937-0.526-1.269C24.123,48.395,23.661,48.203,23.187,48.203z"/>
	<path fill="#A5A5A5" d="M23.187,54.907c-0.472,0-0.935,0.189-1.27,0.525c-0.334,0.333-0.527,0.796-0.527,1.271
		s0.192,0.935,0.527,1.269c0.333,0.336,0.798,0.527,1.27,0.527c0.474,0,0.936-0.191,1.27-0.527c0.335-0.334,0.526-0.798,0.526-1.269
		c0-0.474-0.191-0.938-0.526-1.271C24.123,55.096,23.66,54.907,23.187,54.907L23.187,54.907z"/>
	<path fill="#A5A5A5" d="M23.187,61.607c-0.472,0-0.937,0.193-1.27,0.525c-0.334,0.335-0.527,0.8-0.527,1.272
		c0,0.474,0.192,0.937,0.527,1.271c0.335,0.334,0.798,0.527,1.27,0.527c0.473,0,0.936-0.192,1.27-0.527
		c0.335-0.334,0.526-0.798,0.526-1.271c0-0.472-0.191-0.937-0.526-1.272C24.123,61.8,23.661,61.607,23.187,61.607z"/>
	<path fill="#A5A5A5" d="M23.187,68.31c-0.472,0-0.937,0.194-1.27,0.527c-0.334,0.335-0.527,0.798-0.527,1.272
		c0,0.473,0.192,0.937,0.527,1.271c0.335,0.334,0.798,0.525,1.27,0.525c0.473,0,0.936-0.191,1.27-0.525
		c0.335-0.334,0.526-0.798,0.526-1.271c0-0.474-0.191-0.937-0.526-1.272C24.123,68.504,23.661,68.31,23.187,68.31z"/>
	<path fill="#A5A5A5" d="M23.187,75.013c-0.472,0-0.937,0.193-1.27,0.527c-0.334,0.334-0.527,0.798-0.527,1.269
		c0,0.476,0.192,0.938,0.527,1.272c0.335,0.335,0.798,0.526,1.27,0.526c0.473,0,0.936-0.191,1.27-0.526
		c0.335-0.334,0.526-0.797,0.526-1.272c0-0.471-0.191-0.935-0.526-1.269C24.123,75.206,23.661,75.013,23.187,75.013z"/>
	<path fill="#A5A5A5" d="M29.89,31.685c0.474,0,0.937-0.191,1.272-0.526c0.334-0.333,0.525-0.797,0.525-1.269
		c0-0.471-0.191-0.935-0.525-1.269c-0.335-0.336-0.798-0.527-1.272-0.527c-0.473,0-0.937,0.191-1.27,0.527
		c-0.333,0.334-0.527,0.798-0.527,1.269c0,0.472,0.192,0.937,0.527,1.269C28.953,31.494,29.417,31.685,29.89,31.685z"/>
	<path fill="#A5A5A5" d="M29.89,34.796c-0.473,0-0.937,0.192-1.27,0.527c-0.333,0.335-0.527,0.798-0.527,1.271
		c0,0.472,0.192,0.935,0.527,1.269c0.333,0.335,0.797,0.526,1.27,0.526c0.474,0,0.937-0.191,1.271-0.526
		c0.335-0.334,0.527-0.797,0.527-1.269c0-0.473-0.192-0.935-0.527-1.271C30.826,34.988,30.364,34.796,29.89,34.796z"/>
	<path fill="#A5A5A5" d="M29.89,41.5c-0.473,0-0.937,0.193-1.27,0.527c-0.333,0.333-0.527,0.796-0.527,1.271
		c0,0.471,0.192,0.933,0.527,1.269c0.333,0.334,0.797,0.527,1.27,0.527c0.474,0,0.937-0.193,1.271-0.527
		c0.335-0.336,0.527-0.798,0.527-1.269c0-0.474-0.192-0.938-0.527-1.271C30.826,41.692,30.364,41.5,29.89,41.5z"/>
	<path fill="#A5A5A5" d="M29.89,48.203c-0.473,0-0.937,0.191-1.27,0.527c-0.333,0.333-0.527,0.795-0.527,1.269
		c0,0.471,0.192,0.935,0.527,1.271c0.333,0.334,0.797,0.527,1.27,0.527c0.474,0,0.937-0.192,1.271-0.527
		c0.335-0.335,0.527-0.8,0.527-1.271c0-0.474-0.192-0.937-0.527-1.269C30.826,48.395,30.364,48.203,29.89,48.203z"/>
	<path fill="#A5A5A5" d="M29.89,54.907c-0.473,0-0.937,0.189-1.27,0.525c-0.333,0.333-0.527,0.796-0.527,1.271
		s0.192,0.935,0.527,1.269c0.333,0.336,0.797,0.527,1.27,0.527c0.474,0,0.937-0.191,1.271-0.527
		c0.335-0.334,0.527-0.798,0.527-1.269c0-0.474-0.192-0.938-0.527-1.271C30.826,55.096,30.364,54.907,29.89,54.907L29.89,54.907z"/>
	<path fill="#A5A5A5" d="M29.89,61.607c-0.473,0-0.937,0.193-1.27,0.525c-0.333,0.335-0.527,0.8-0.527,1.272
		c0,0.474,0.192,0.937,0.527,1.271c0.333,0.334,0.797,0.527,1.27,0.527c0.474,0,0.937-0.192,1.271-0.527
		c0.335-0.334,0.527-0.798,0.527-1.271c0-0.472-0.192-0.933-0.527-1.272C30.826,61.8,30.364,61.607,29.89,61.607z"/>
	<path fill="#A5A5A5" d="M29.89,68.31c-0.473,0-0.937,0.194-1.27,0.527c-0.333,0.335-0.527,0.798-0.527,1.272
		c0,0.473,0.192,0.937,0.527,1.271c0.333,0.331,0.797,0.525,1.27,0.525c0.474,0,0.937-0.194,1.271-0.525
		c0.335-0.334,0.527-0.798,0.527-1.271c0-0.474-0.192-0.935-0.527-1.272C30.826,68.504,30.364,68.31,29.89,68.31z"/>
	<path fill="#A5A5A5" d="M29.89,75.013c-0.473,0-0.937,0.193-1.27,0.527c-0.333,0.334-0.527,0.798-0.527,1.269
		c0,0.476,0.192,0.938,0.527,1.272c0.333,0.335,0.797,0.526,1.27,0.526c0.474,0,0.937-0.191,1.271-0.526
		c0.335-0.334,0.527-0.797,0.527-1.272c0-0.471-0.192-0.932-0.527-1.269C30.826,75.206,30.364,75.013,29.89,75.013z"/>
	<path fill="#A5A5A5" d="M36.595,31.685c0.473,0,0.936-0.191,1.27-0.526c0.334-0.333,0.525-0.797,0.525-1.269
		c0-0.471-0.19-0.935-0.525-1.269c-0.336-0.336-0.797-0.527-1.27-0.527c-0.474,0-0.937,0.191-1.271,0.527
		c-0.336,0.334-0.527,0.798-0.527,1.269c0,0.472,0.191,0.937,0.527,1.269C35.657,31.494,36.121,31.685,36.595,31.685z"/>
	<path fill="#A5A5A5" d="M36.595,34.796c-0.474,0-0.937,0.192-1.271,0.527c-0.336,0.335-0.527,0.795-0.527,1.271
		c0,0.474,0.191,0.935,0.527,1.269c0.334,0.335,0.796,0.526,1.271,0.526c0.473,0,0.934-0.191,1.27-0.526
		c0.334-0.334,0.527-0.797,0.527-1.269c0-0.473-0.192-0.935-0.527-1.271C37.528,34.988,37.067,34.796,36.595,34.796z"/>
	<path fill="#A5A5A5" d="M36.595,41.5c-0.474,0-0.937,0.193-1.271,0.527c-0.336,0.333-0.527,0.795-0.527,1.271
		c0,0.471,0.191,0.933,0.527,1.269c0.334,0.334,0.796,0.527,1.271,0.527c0.473,0,0.934-0.193,1.27-0.527
		c0.334-0.336,0.527-0.798,0.527-1.269c0-0.474-0.192-0.938-0.527-1.271C37.53,41.692,37.067,41.5,36.595,41.5z"/>
	<path fill="#A5A5A5" d="M36.595,48.203c-0.474,0-0.938,0.191-1.271,0.527c-0.336,0.333-0.527,0.795-0.527,1.269
		c0,0.471,0.191,0.935,0.527,1.271c0.334,0.334,0.796,0.527,1.271,0.527c0.473,0,0.934-0.192,1.27-0.527
		c0.334-0.335,0.527-0.8,0.527-1.271c0-0.474-0.192-0.937-0.527-1.269C37.53,48.395,37.067,48.203,36.595,48.203z"/>
	<path fill="#A5A5A5" d="M36.595,54.907c-0.474,0-0.938,0.189-1.271,0.525c-0.336,0.333-0.527,0.796-0.527,1.271
		s0.191,0.935,0.527,1.269c0.334,0.336,0.796,0.527,1.271,0.527c0.473,0,0.936-0.191,1.27-0.527
		c0.334-0.334,0.527-0.798,0.527-1.269c0-0.474-0.192-0.938-0.527-1.271C37.53,55.096,37.067,54.907,36.595,54.907L36.595,54.907z"
		/>
	<path fill="#A5A5A5" d="M36.595,61.607c-0.474,0-0.937,0.193-1.271,0.525c-0.336,0.335-0.527,0.8-0.527,1.272
		c0,0.474,0.191,0.937,0.527,1.271c0.334,0.336,0.796,0.527,1.271,0.527c0.473,0,0.934-0.191,1.27-0.527
		c0.334-0.334,0.527-0.798,0.527-1.271c0-0.472-0.192-0.937-0.527-1.272C37.53,61.8,37.067,61.607,36.595,61.607z"/>
	<path fill="#DA0016" d="M36.595,68.31c-0.474,0-0.937,0.194-1.271,0.527c-0.336,0.335-0.527,0.798-0.527,1.272
		c0,0.473,0.191,0.937,0.527,1.271c0.334,0.334,0.796,0.525,1.271,0.525c0.473,0,0.936-0.191,1.27-0.525
		c0.334-0.334,0.527-0.798,0.527-1.271c0-0.474-0.192-0.937-0.527-1.272C37.53,68.504,37.067,68.31,36.595,68.31z"/>
	<path fill="#A5A5A5" d="M36.595,75.013c-0.474,0-0.937,0.193-1.271,0.527c-0.336,0.334-0.527,0.798-0.527,1.269
		c0,0.476,0.191,0.938,0.527,1.272c0.334,0.335,0.796,0.526,1.271,0.526c0.473,0,0.936-0.191,1.27-0.526
		c0.334-0.334,0.527-0.797,0.527-1.272c0-0.471-0.192-0.935-0.527-1.269C37.528,75.206,37.067,75.013,36.595,75.013z"/>
	<path fill="#A5A5A5" d="M43.297,28.094c-0.472,0-0.935,0.191-1.27,0.527c-0.334,0.334-0.525,0.798-0.525,1.269
		c0,0.472,0.191,0.937,0.525,1.269c0.335,0.335,0.798,0.526,1.27,0.526c0.473,0,0.937-0.191,1.271-0.526
		c0.334-0.333,0.526-0.797,0.526-1.269c0-0.471-0.192-0.935-0.526-1.269C44.233,28.285,43.77,28.094,43.297,28.094z"/>
	<path fill="#A5A5A5" d="M43.297,34.796c-0.474,0-0.935,0.192-1.272,0.527c-0.334,0.335-0.523,0.798-0.523,1.271
		c0,0.472,0.189,0.935,0.523,1.269c0.337,0.335,0.798,0.526,1.272,0.526c0.473,0,0.937-0.191,1.271-0.526
		c0.334-0.334,0.526-0.797,0.526-1.269c0-0.473-0.192-0.935-0.526-1.271C44.233,34.988,43.77,34.796,43.297,34.796z"/>
	<path fill="#A5A5A5" d="M43.297,41.5c-0.474,0-0.935,0.193-1.272,0.527c-0.334,0.333-0.523,0.796-0.523,1.271
		c0,0.471,0.189,0.933,0.523,1.269c0.337,0.334,0.8,0.527,1.272,0.527c0.473,0,0.935-0.193,1.271-0.527
		c0.334-0.336,0.526-0.798,0.526-1.269c0-0.474-0.192-0.938-0.526-1.271C44.233,41.692,43.77,41.5,43.297,41.5z"/>
	<path fill="#A5A5A5" d="M43.297,48.203c-0.474,0-0.935,0.191-1.272,0.527c-0.334,0.333-0.523,0.795-0.523,1.269
		c0,0.471,0.189,0.935,0.523,1.271c0.337,0.334,0.798,0.527,1.272,0.527c0.473,0,0.937-0.192,1.271-0.527
		c0.334-0.335,0.526-0.8,0.526-1.271c0-0.474-0.192-0.937-0.526-1.269C44.233,48.395,43.77,48.203,43.297,48.203z"/>
	<path fill="#A5A5A5" d="M43.297,54.907c-0.474,0-0.935,0.189-1.272,0.525c-0.334,0.333-0.523,0.796-0.523,1.271
		c0,0.471,0.189,0.935,0.523,1.269c0.337,0.336,0.798,0.527,1.272,0.527c0.473,0,0.937-0.191,1.271-0.527
		c0.334-0.334,0.526-0.798,0.526-1.269c0-0.474-0.192-0.938-0.526-1.271C44.233,55.096,43.77,54.907,43.297,54.907L43.297,54.907z"
		/>
	<path fill="#A5A5A5" d="M43.297,61.607c-0.474,0-0.935,0.193-1.272,0.525c-0.334,0.335-0.523,0.8-0.523,1.272
		c0,0.474,0.189,0.937,0.523,1.271c0.337,0.334,0.798,0.527,1.272,0.527c0.473,0,0.937-0.192,1.271-0.527
		c0.334-0.334,0.526-0.796,0.526-1.271c0-0.472-0.192-0.937-0.526-1.272C44.232,61.8,43.77,61.607,43.297,61.607z"/>
	<path fill="#A5A5A5" d="M43.297,68.31c-0.474,0-0.935,0.194-1.272,0.527c-0.334,0.337-0.523,0.798-0.523,1.272
		c0,0.473,0.189,0.937,0.523,1.271c0.337,0.331,0.798,0.525,1.272,0.525c0.473,0,0.937-0.194,1.271-0.525
		c0.334-0.334,0.526-0.798,0.526-1.271c0-0.474-0.192-0.937-0.526-1.272C44.233,68.504,43.77,68.31,43.297,68.31z"/>
	<path fill="#DA0016" d="M43.297,75.013c-0.474,0-0.935,0.193-1.272,0.527c-0.334,0.337-0.523,0.798-0.523,1.269
		c0,0.476,0.189,0.938,0.523,1.274c0.337,0.334,0.8,0.525,1.272,0.525c0.473,0,0.935-0.191,1.271-0.525
		c0.334-0.336,0.526-0.798,0.526-1.274c0-0.471-0.192-0.935-0.526-1.269C44.233,75.206,43.77,75.013,43.297,75.013z"/>
	<path fill="#A5A5A5" d="M50.001,28.094c-0.473,0-0.937,0.191-1.272,0.527c-0.334,0.334-0.525,0.798-0.525,1.269
		c0,0.472,0.191,0.937,0.525,1.269c0.336,0.335,0.799,0.526,1.272,0.526c0.472,0,0.936-0.191,1.269-0.526
		c0.335-0.333,0.527-0.797,0.527-1.269c0-0.471-0.192-0.935-0.527-1.269C50.937,28.285,50.473,28.094,50.001,28.094z"/>
	<path fill="#A5A5A5" d="M50.001,34.796c-0.475,0-0.937,0.192-1.271,0.527c-0.335,0.335-0.526,0.798-0.526,1.271
		c0,0.472,0.191,0.935,0.526,1.269c0.334,0.335,0.796,0.526,1.271,0.526c0.472,0,0.936-0.191,1.269-0.526
		c0.335-0.334,0.527-0.797,0.527-1.269c0-0.473-0.192-0.935-0.527-1.271C50.935,34.988,50.473,34.796,50.001,34.796z"/>
	<path fill="#DA0016" d="M50.001,41.5c-0.475,0-0.937,0.193-1.271,0.527c-0.335,0.333-0.526,0.796-0.526,1.271
		c0,0.471,0.191,0.933,0.526,1.269c0.334,0.334,0.796,0.527,1.271,0.527c0.472,0,0.934-0.193,1.269-0.527
		c0.335-0.336,0.527-0.798,0.527-1.269c0-0.474-0.192-0.938-0.527-1.271C50.935,41.692,50.473,41.5,50.001,41.5z"/>
	<path fill="#A5A5A5" d="M50.001,48.203c-0.475,0-0.937,0.191-1.271,0.527c-0.335,0.333-0.526,0.795-0.526,1.269
		c0,0.471,0.191,0.935,0.526,1.271c0.334,0.334,0.796,0.527,1.271,0.527c0.472,0,0.934-0.192,1.269-0.527
		c0.335-0.335,0.527-0.8,0.527-1.271c0-0.474-0.192-0.937-0.527-1.269C50.935,48.395,50.473,48.203,50.001,48.203z"/>
	<path fill="#A5A5A5" d="M50.001,54.907c-0.475,0-0.937,0.189-1.271,0.525c-0.335,0.333-0.526,0.796-0.526,1.271
		c0,0.471,0.191,0.935,0.526,1.269c0.334,0.336,0.796,0.527,1.271,0.527c0.472,0,0.934-0.191,1.269-0.527
		c0.335-0.334,0.527-0.795,0.527-1.269s-0.192-0.938-0.527-1.271C50.935,55.096,50.473,54.907,50.001,54.907L50.001,54.907z"/>
	<path fill="#A5A5A5" d="M50.001,61.607c-0.475,0-0.937,0.193-1.271,0.525c-0.335,0.335-0.526,0.8-0.526,1.272
		c0,0.473,0.191,0.937,0.526,1.271c0.334,0.334,0.796,0.527,1.271,0.527c0.472,0,0.936-0.192,1.269-0.527
		c0.335-0.334,0.527-0.796,0.527-1.271c0-0.472-0.192-0.937-0.527-1.272C50.937,61.8,50.473,61.607,50.001,61.607z"/>
	<path fill="#A5A5A5" d="M50.001,68.31c-0.475,0-0.938,0.194-1.271,0.527c-0.335,0.335-0.526,0.798-0.526,1.272
		c0,0.473,0.191,0.937,0.526,1.271c0.333,0.331,0.796,0.525,1.271,0.525c0.472,0,0.936-0.194,1.269-0.525
		c0.335-0.334,0.527-0.798,0.527-1.271c0-0.474-0.192-0.937-0.527-1.272C50.937,68.504,50.473,68.31,50.001,68.31z"/>
	<path fill="#A5A5A5" d="M50.001,75.013c-0.475,0-0.937,0.193-1.271,0.527c-0.335,0.334-0.526,0.798-0.526,1.269
		c0,0.476,0.191,0.938,0.526,1.274c0.334,0.334,0.796,0.525,1.271,0.525c0.472,0,0.934-0.191,1.269-0.525
		c0.335-0.336,0.527-0.798,0.527-1.274c0-0.471-0.192-0.935-0.527-1.269S50.473,75.013,50.001,75.013z"/>
	<path fill="#A5A5A5" d="M56.705,28.094c-0.476,0-0.937,0.191-1.272,0.527c-0.335,0.334-0.525,0.798-0.525,1.269
		c0,0.472,0.19,0.937,0.525,1.269c0.336,0.335,0.797,0.526,1.272,0.526c0.471,0,0.935-0.191,1.269-0.526
		c0.334-0.333,0.526-0.797,0.526-1.269c0-0.471-0.192-0.935-0.526-1.269C57.639,28.285,57.176,28.094,56.705,28.094z"/>
	<path fill="#A5A5A5" d="M56.705,34.796c-0.476,0-0.937,0.192-1.272,0.527c-0.335,0.335-0.525,0.798-0.525,1.271
		c0,0.472,0.19,0.935,0.525,1.269c0.336,0.335,0.799,0.526,1.272,0.526c0.471,0,0.933-0.191,1.269-0.526
		c0.334-0.334,0.526-0.797,0.526-1.269c0-0.473-0.192-0.935-0.526-1.271C57.639,34.988,57.176,34.796,56.705,34.796z"/>
	<path fill="#A5A5A5" d="M56.705,41.5c-0.473,0-0.937,0.193-1.272,0.527c-0.335,0.333-0.525,0.796-0.525,1.271
		c0,0.471,0.19,0.933,0.525,1.269c0.336,0.334,0.797,0.527,1.272,0.527c0.471,0,0.935-0.193,1.269-0.527
		c0.334-0.336,0.526-0.798,0.526-1.269c0-0.474-0.192-0.938-0.526-1.271C57.638,41.692,57.176,41.5,56.705,41.5z"/>
	<path fill="#A5A5A5" d="M56.705,48.203c-0.476,0-0.937,0.191-1.272,0.527c-0.335,0.333-0.525,0.795-0.525,1.269
		c0,0.471,0.19,0.935,0.525,1.271c0.336,0.334,0.797,0.527,1.272,0.527c0.471,0,0.935-0.192,1.269-0.527
		c0.334-0.335,0.526-0.8,0.526-1.271c0-0.474-0.192-0.937-0.526-1.269C57.639,48.395,57.176,48.203,56.705,48.203z"/>
	<path fill="#A5A5A5" d="M56.705,54.907c-0.476,0-0.937,0.189-1.272,0.525c-0.335,0.333-0.525,0.796-0.525,1.271
		c0,0.471,0.19,0.935,0.525,1.269c0.336,0.336,0.799,0.527,1.272,0.527c0.471,0,0.933-0.191,1.269-0.527
		c0.334-0.334,0.526-0.798,0.526-1.269c0-0.474-0.192-0.938-0.526-1.271C57.639,55.096,57.176,54.907,56.705,54.907L56.705,54.907z"
		/>
	<path fill="#A5A5A5" d="M56.705,61.607c-0.476,0-0.937,0.193-1.272,0.525c-0.335,0.335-0.525,0.8-0.525,1.272
		c0,0.473,0.19,0.937,0.525,1.271c0.336,0.334,0.799,0.527,1.272,0.527c0.471,0,0.935-0.192,1.269-0.527
		c0.334-0.334,0.526-0.798,0.526-1.271c0-0.472-0.192-0.937-0.526-1.272C57.639,61.8,57.176,61.607,56.705,61.607z"/>
	<path fill="#A5A5A5" d="M56.705,68.31c-0.473,0-0.937,0.194-1.272,0.527c-0.335,0.335-0.525,0.798-0.525,1.272
		c0,0.473,0.19,0.937,0.525,1.271c0.336,0.331,0.797,0.525,1.272,0.525c0.471,0,0.935-0.194,1.269-0.525
		c0.334-0.334,0.526-0.798,0.526-1.271c0-0.474-0.192-0.937-0.526-1.272C57.638,68.504,57.176,68.31,56.705,68.31z"/>
	<path fill="#A5A5A5" d="M56.705,75.013c-0.476,0-0.937,0.193-1.272,0.527c-0.335,0.334-0.525,0.798-0.525,1.269
		c0,0.476,0.19,0.938,0.525,1.272c0.336,0.335,0.797,0.526,1.272,0.526c0.471,0,0.935-0.191,1.269-0.526
		c0.334-0.334,0.526-0.797,0.526-1.272c0-0.471-0.192-0.935-0.526-1.269C57.639,75.206,57.176,75.013,56.705,75.013z"/>
	<path fill="#A5A5A5" d="M63.407,28.094c-0.473,0-0.937,0.191-1.271,0.527c-0.334,0.334-0.526,0.798-0.526,1.269
		c0,0.472,0.192,0.937,0.526,1.269c0.334,0.335,0.798,0.526,1.271,0.526c0.472,0,0.936-0.191,1.269-0.526
		c0.335-0.333,0.528-0.797,0.528-1.269c0-0.471-0.193-0.935-0.528-1.269C64.342,28.285,63.879,28.094,63.407,28.094z"/>
	<path fill="#DA0016" d="M63.407,34.796c-0.473,0-0.937,0.192-1.271,0.527c-0.334,0.335-0.526,0.798-0.526,1.271
		c0,0.472,0.192,0.935,0.526,1.269c0.334,0.335,0.798,0.526,1.271,0.526c0.472,0,0.936-0.191,1.269-0.526
		c0.335-0.334,0.528-0.797,0.528-1.269c0-0.473-0.193-0.935-0.528-1.271C64.342,34.988,63.879,34.796,63.407,34.796z"/>
	<path fill="#A5A5A5" d="M63.407,41.5c-0.476,0-0.937,0.193-1.271,0.527c-0.334,0.333-0.526,0.796-0.526,1.271
		c0,0.471,0.192,0.933,0.526,1.269c0.334,0.334,0.798,0.527,1.271,0.527c0.472,0,0.936-0.193,1.269-0.527
		c0.335-0.336,0.528-0.798,0.528-1.269c0-0.474-0.193-0.938-0.528-1.271C64.342,41.692,63.879,41.5,63.407,41.5z"/>
	<path fill="#A5A5A5" d="M63.407,48.203c-0.476,0-0.937,0.191-1.271,0.527c-0.334,0.333-0.526,0.795-0.526,1.269
		c0,0.471,0.192,0.935,0.526,1.271c0.334,0.334,0.798,0.527,1.271,0.527c0.472,0,0.936-0.192,1.269-0.527
		c0.335-0.335,0.528-0.795,0.528-1.271c0-0.474-0.193-0.937-0.528-1.269C64.342,48.395,63.879,48.203,63.407,48.203z"/>
	<path fill="#A5A5A5" d="M63.407,54.907c-0.476,0-0.937,0.189-1.271,0.525c-0.334,0.333-0.526,0.796-0.526,1.271
		c0,0.471,0.192,0.935,0.526,1.269c0.334,0.336,0.798,0.527,1.271,0.527c0.472,0,0.936-0.191,1.269-0.527
		c0.335-0.334,0.528-0.795,0.528-1.269s-0.193-0.938-0.528-1.271C64.342,55.096,63.879,54.907,63.407,54.907L63.407,54.907z"/>
	<path fill="#A5A5A5" d="M63.407,61.607c-0.473,0-0.937,0.193-1.271,0.525c-0.334,0.335-0.526,0.8-0.526,1.272
		c0,0.473,0.192,0.937,0.526,1.271c0.334,0.334,0.798,0.527,1.271,0.527c0.472,0,0.936-0.192,1.269-0.527
		c0.335-0.334,0.528-0.796,0.528-1.271c0-0.472-0.193-0.937-0.528-1.272C64.342,61.8,63.879,61.607,63.407,61.607z"/>
	<path fill="#A5A5A5" d="M63.407,68.31c-0.476,0-0.937,0.194-1.271,0.527c-0.334,0.335-0.526,0.798-0.526,1.272
		c0,0.473,0.192,0.937,0.526,1.271c0.334,0.331,0.798,0.525,1.271,0.525c0.472,0,0.936-0.194,1.269-0.525
		c0.335-0.334,0.528-0.798,0.528-1.271c0-0.474-0.193-0.937-0.528-1.272C64.342,68.504,63.879,68.31,63.407,68.31z"/>
	<path fill="#A5A5A5" d="M63.407,75.013c-0.476,0-0.937,0.193-1.271,0.527c-0.334,0.334-0.526,0.798-0.526,1.269
		c0,0.476,0.192,0.938,0.526,1.272c0.334,0.335,0.798,0.526,1.271,0.526c0.472,0,0.936-0.191,1.269-0.526
		c0.335-0.334,0.528-0.797,0.528-1.272c0-0.471-0.193-0.935-0.528-1.269C64.342,75.206,63.879,75.013,63.407,75.013z"/>
	<path fill="#A5A5A5" d="M70.109,28.094c-0.472,0-0.935,0.191-1.269,0.527c-0.334,0.334-0.527,0.798-0.527,1.269
		c0,0.472,0.192,0.937,0.527,1.269c0.334,0.335,0.797,0.526,1.269,0.526c0.472,0,0.937-0.191,1.271-0.526
		c0.334-0.333,0.526-0.797,0.526-1.269c0-0.474-0.192-0.935-0.526-1.269C71.045,28.285,70.581,28.094,70.109,28.094z"/>
	<path fill="#A5A5A5" d="M70.109,34.796c-0.472,0-0.935,0.192-1.269,0.527c-0.334,0.335-0.527,0.798-0.527,1.271
		c0,0.472,0.192,0.935,0.527,1.269c0.334,0.335,0.797,0.526,1.269,0.526c0.472,0,0.937-0.191,1.271-0.526
		c0.334-0.334,0.526-0.797,0.526-1.269c0-0.473-0.192-0.935-0.526-1.271C71.045,34.988,70.581,34.796,70.109,34.796z"/>
	<path fill="#A5A5A5" d="M70.109,41.5c-0.472,0-0.935,0.193-1.269,0.527c-0.334,0.333-0.527,0.796-0.527,1.271
		c0,0.471,0.192,0.933,0.527,1.269c0.334,0.334,0.797,0.527,1.269,0.527c0.472,0,0.937-0.193,1.271-0.527
		c0.334-0.336,0.526-0.798,0.526-1.269c0-0.474-0.192-0.938-0.526-1.271C71.045,41.692,70.581,41.5,70.109,41.5z"/>
	<path fill="#A5A5A5" d="M70.109,48.203c-0.472,0-0.935,0.191-1.269,0.527c-0.334,0.333-0.527,0.795-0.527,1.269
		c0,0.471,0.192,0.935,0.527,1.271c0.334,0.334,0.797,0.527,1.269,0.527c0.472,0,0.937-0.192,1.271-0.527
		c0.334-0.335,0.526-0.8,0.526-1.271c0-0.474-0.192-0.937-0.526-1.269C71.045,48.395,70.581,48.203,70.109,48.203z"/>
	<path fill="#DA0016" d="M70.109,54.907c-0.472,0-0.935,0.189-1.269,0.525c-0.334,0.333-0.527,0.796-0.527,1.271
		c0,0.471,0.192,0.935,0.527,1.269c0.334,0.336,0.797,0.527,1.269,0.527c0.472,0,0.937-0.191,1.271-0.527
		c0.334-0.334,0.526-0.798,0.526-1.269c0-0.474-0.192-0.938-0.526-1.271C71.045,55.096,70.581,54.907,70.109,54.907L70.109,54.907z"
		/>
	<path fill="#A5A5A5" d="M70.109,61.607c-0.472,0-0.935,0.193-1.269,0.525c-0.334,0.335-0.527,0.8-0.527,1.272
		c0,0.474,0.192,0.937,0.527,1.271c0.334,0.336,0.797,0.527,1.269,0.527c0.472,0,0.937-0.191,1.271-0.527
		c0.334-0.334,0.526-0.798,0.526-1.271c0-0.472-0.192-0.937-0.526-1.272C71.045,61.8,70.581,61.607,70.109,61.607z"/>
	<path fill="#A5A5A5" d="M70.109,68.31c-0.472,0-0.935,0.194-1.269,0.527c-0.334,0.335-0.527,0.798-0.527,1.272
		c0,0.473,0.192,0.937,0.527,1.271c0.334,0.334,0.797,0.525,1.269,0.525c0.472,0,0.937-0.191,1.271-0.525
		c0.334-0.334,0.526-0.798,0.526-1.271c0-0.474-0.192-0.937-0.526-1.272C71.045,68.504,70.581,68.31,70.109,68.31z"/>
	<path fill="#A5A5A5" d="M70.109,75.013c-0.472,0-0.935,0.193-1.269,0.527c-0.334,0.334-0.527,0.798-0.527,1.269
		c0,0.476,0.192,0.938,0.527,1.272c0.334,0.335,0.797,0.526,1.269,0.526c0.472,0,0.937-0.191,1.271-0.526
		c0.334-0.334,0.526-0.797,0.526-1.272c0-0.471-0.192-0.935-0.526-1.269S70.581,75.013,70.109,75.013z"/>
	<path fill="#A5A5A5" d="M76.813,28.094c-0.473,0-0.936,0.191-1.27,0.527c-0.335,0.334-0.526,0.798-0.526,1.269
		c0,0.472,0.191,0.937,0.526,1.269c0.333,0.335,0.797,0.526,1.27,0.526c0.472,0,0.937-0.191,1.271-0.526
		c0.334-0.333,0.527-0.797,0.527-1.269c0-0.471-0.193-0.935-0.527-1.269C77.749,28.285,77.285,28.094,76.813,28.094z"/>
	<path fill="#A5A5A5" d="M76.813,34.796c-0.473,0-0.936,0.192-1.27,0.527c-0.335,0.335-0.526,0.798-0.526,1.271
		c0,0.472,0.191,0.935,0.526,1.269c0.333,0.335,0.797,0.526,1.27,0.526c0.472,0,0.937-0.191,1.271-0.526
		c0.334-0.334,0.527-0.797,0.527-1.269c0-0.473-0.193-0.935-0.527-1.271C77.749,34.988,77.285,34.796,76.813,34.796z"/>
	<path fill="#DA0016" d="M76.813,41.5c-0.473,0-0.936,0.193-1.27,0.527c-0.335,0.333-0.526,0.796-0.526,1.271
		c0,0.471,0.191,0.933,0.526,1.269c0.333,0.334,0.797,0.527,1.27,0.527c0.472,0,0.937-0.193,1.271-0.527
		c0.334-0.336,0.527-0.798,0.527-1.269c0-0.474-0.193-0.938-0.527-1.271C77.749,41.692,77.285,41.5,76.813,41.5z"/>
	<path fill="#A5A5A5" d="M76.813,48.203c-0.473,0-0.936,0.191-1.27,0.527c-0.335,0.333-0.526,0.795-0.526,1.269
		c0,0.471,0.191,0.935,0.526,1.271c0.334,0.334,0.797,0.527,1.27,0.527c0.472,0,0.937-0.192,1.271-0.527
		c0.334-0.335,0.527-0.8,0.527-1.271c0-0.474-0.193-0.937-0.527-1.269C77.749,48.395,77.285,48.203,76.813,48.203z"/>
	<path fill="#A5A5A5" d="M76.813,54.907c-0.473,0-0.936,0.189-1.27,0.525c-0.335,0.333-0.526,0.796-0.526,1.271
		s0.191,0.935,0.526,1.269c0.334,0.336,0.797,0.527,1.27,0.527c0.472,0,0.937-0.191,1.271-0.527
		c0.334-0.334,0.527-0.798,0.527-1.269c0-0.474-0.193-0.938-0.527-1.271C77.749,55.096,77.285,54.907,76.813,54.907L76.813,54.907z"
		/>
	<path fill="#A5A5A5" d="M76.813,61.607c-0.473,0-0.936,0.193-1.27,0.525c-0.335,0.335-0.526,0.8-0.526,1.272
		c0,0.474,0.191,0.937,0.526,1.271c0.334,0.334,0.797,0.527,1.27,0.527c0.472,0,0.937-0.192,1.271-0.527
		c0.334-0.334,0.527-0.798,0.527-1.271c0-0.472-0.193-0.937-0.527-1.272C77.749,61.8,77.285,61.607,76.813,61.607z"/>
	<path fill="#A5A5A5" d="M76.813,68.31c-0.473,0-0.936,0.194-1.27,0.527c-0.335,0.335-0.526,0.798-0.526,1.272
		c0,0.473,0.191,0.937,0.526,1.271c0.333,0.334,0.797,0.525,1.27,0.525c0.472,0,0.937-0.191,1.271-0.525
		c0.334-0.334,0.527-0.798,0.527-1.271c0-0.474-0.193-0.937-0.527-1.272C77.749,68.504,77.285,68.31,76.813,68.31z"/>
	<path fill="#A5A5A5" d="M76.813,75.013c-0.473,0-0.936,0.193-1.27,0.527c-0.335,0.334-0.526,0.798-0.526,1.269
		c0,0.476,0.191,0.938,0.526,1.274c0.333,0.334,0.797,0.525,1.27,0.525c0.472,0,0.937-0.191,1.271-0.525
		c0.334-0.336,0.527-0.798,0.527-1.274c0-0.471-0.193-0.935-0.527-1.269S77.285,75.013,76.813,75.013z"/>
	<path fill="#A5A5A5" d="M23.187,21.39c-0.472,0-0.937,0.192-1.27,0.527c-0.334,0.334-0.527,0.795-0.527,1.269
		c0,0.474,0.192,0.938,0.527,1.272c0.333,0.333,0.798,0.523,1.27,0.523c0.474,0,0.936-0.191,1.27-0.523
		c0.335-0.334,0.526-0.798,0.526-1.272c0-0.471-0.191-0.935-0.526-1.269C24.123,21.583,23.661,21.39,23.187,21.39z"/>
	<path fill="#A5A5A5" d="M29.89,21.39c-0.473,0-0.937,0.192-1.27,0.527c-0.333,0.334-0.527,0.798-0.527,1.269
		c0,0.474,0.192,0.938,0.527,1.272c0.333,0.333,0.797,0.523,1.27,0.523c0.474,0,0.937-0.191,1.271-0.523
		c0.335-0.334,0.527-0.798,0.527-1.272c0-0.471-0.192-0.935-0.527-1.269C30.826,21.583,30.364,21.39,29.89,21.39z"/>
	<path fill="#A5A5A5" d="M36.595,21.39c-0.474,0-0.937,0.192-1.271,0.527c-0.336,0.334-0.527,0.798-0.527,1.269
		c0,0.474,0.191,0.938,0.527,1.272c0.333,0.333,0.796,0.523,1.271,0.523c0.473,0,0.936-0.191,1.27-0.523
		c0.334-0.334,0.527-0.798,0.527-1.272c0-0.471-0.192-0.935-0.527-1.269C37.528,21.583,37.067,21.39,36.595,21.39z"/>
	<path fill="#DA0016" d="M43.297,21.39c-0.474,0-0.935,0.192-1.272,0.527c-0.334,0.334-0.523,0.798-0.523,1.269
		c0,0.474,0.189,0.938,0.523,1.272c0.337,0.333,0.798,0.523,1.272,0.523c0.473,0,0.937-0.191,1.271-0.523
		c0.334-0.334,0.526-0.798,0.526-1.272c0-0.471-0.192-0.935-0.526-1.269C44.233,21.583,43.77,21.39,43.297,21.39z"/>
	<path fill="#A5A5A5" d="M50.001,21.39c-0.475,0-0.937,0.192-1.271,0.527c-0.335,0.334-0.526,0.798-0.526,1.269
		c0,0.474,0.191,0.938,0.526,1.272c0.334,0.333,0.796,0.523,1.271,0.523c0.472,0,0.934-0.191,1.269-0.523
		c0.335-0.334,0.527-0.798,0.527-1.272c0-0.471-0.192-0.935-0.527-1.269C50.937,21.583,50.473,21.39,50.001,21.39z"/>
	<path fill="#A5A5A5" d="M56.705,21.39c-0.476,0-0.937,0.192-1.272,0.527c-0.335,0.334-0.525,0.798-0.525,1.269
		c0,0.474,0.19,0.938,0.525,1.272c0.336,0.333,0.797,0.523,1.272,0.523c0.471,0,0.935-0.191,1.269-0.523
		c0.334-0.334,0.526-0.798,0.526-1.272c0-0.471-0.192-0.935-0.526-1.269C57.639,21.583,57.176,21.39,56.705,21.39z"/>
	<path fill="#A5A5A5" d="M63.407,21.39c-0.473,0-0.937,0.192-1.271,0.527c-0.334,0.334-0.526,0.798-0.526,1.269
		c0,0.474,0.192,0.938,0.526,1.272c0.334,0.333,0.797,0.523,1.271,0.523c0.472,0,0.936-0.191,1.269-0.523
		c0.335-0.334,0.528-0.798,0.528-1.272c0-0.474-0.193-0.935-0.528-1.269C64.342,21.583,63.879,21.39,63.407,21.39z"/>
	<path fill="#A5A5A5" d="M70.109,21.39c-0.472,0-0.935,0.192-1.269,0.527c-0.334,0.334-0.527,0.795-0.527,1.269
		c0,0.474,0.192,0.938,0.527,1.272c0.334,0.333,0.797,0.523,1.269,0.523c0.472,0,0.937-0.191,1.271-0.523
		c0.334-0.334,0.526-0.798,0.526-1.272c0-0.471-0.192-0.935-0.526-1.269C71.045,21.583,70.581,21.39,70.109,21.39z"/>
	<path fill="#A5A5A5" d="M76.813,21.39c-0.473,0-0.936,0.192-1.27,0.527c-0.335,0.334-0.526,0.795-0.526,1.269
		c0,0.474,0.191,0.938,0.526,1.272c0.333,0.333,0.797,0.523,1.27,0.523c0.472,0,0.937-0.191,1.271-0.523
		c0.334-0.334,0.527-0.798,0.527-1.272c0-0.471-0.193-0.935-0.527-1.269C77.749,21.583,77.285,21.39,76.813,21.39z"/>
	<path fill="#A5A5A5" d="M87.363,75.415l-1.513-3.667l1.513-3.666c0.182-0.436,0.182-0.93,0-1.371l-1.513-3.666l1.513-3.665
		c0.182-0.439,0.182-0.93,0-1.371l-1.513-3.666l1.513-3.661c0.182-0.439,0.182-0.933,0-1.373l-1.513-3.664l1.513-3.666
		c0.182-0.439,0.182-0.932,0-1.371l-1.513-3.666l1.513-3.664c0.182-0.441,0.182-0.933,0-1.373l-1.513-3.664l1.513-3.664
		c0.182-0.439,0.182-0.933,0-1.373l-1.55-3.753l1.344-4.368c0.196-0.637,0.024-1.33-0.446-1.799
		c-0.471-0.473-1.162-0.642-1.799-0.448l-4.37,1.343l-3.755-1.549c-0.439-0.181-0.932-0.181-1.372,0l-3.664,1.514l-3.667-1.514
		c-0.438-0.181-0.931-0.181-1.37,0l-3.666,1.514l-3.666-1.514c-0.439-0.181-0.932-0.181-1.371,0l-3.664,1.514l-3.665-1.514
		c-0.439-0.181-0.932-0.181-1.371,0l-3.664,1.514l-3.665-1.514c-0.439-0.181-0.933-0.181-1.373,0l-3.664,1.514l-3.665-1.514
		c-0.439-0.181-0.932-0.181-1.372,0l-3.665,1.514l-3.665-1.514c-0.439-0.181-0.932-0.181-1.372,0l-3.753,1.549l-4.369-1.343
		c-0.636-0.194-1.328-0.025-1.798,0.448c-0.47,0.469-0.642,1.162-0.446,1.799l1.343,4.37l-1.55,3.752
		c-0.182,0.439-0.182,0.935,0,1.373l1.512,3.666l-1.512,3.664c-0.182,0.439-0.182,0.934,0,1.373l1.512,3.665l-1.512,3.664
		c-0.182,0.439-0.182,0.933,0,1.373l1.512,3.664l-1.512,3.666c-0.182,0.439-0.182,0.932,0,1.371l1.512,3.666l-1.512,3.662
		c-0.182,0.439-0.182,0.935,0,1.374l1.512,3.664l-1.512,3.664c-0.182,0.439-0.182,0.933,0,1.373l1.512,3.664l-1.512,3.666
		c-0.182,0.439-0.182,0.931,0,1.371l1.55,3.753l-1.343,4.37c-0.196,0.634-0.023,1.327,0.447,1.797
		c0.47,0.469,1.161,0.644,1.797,0.448l4.371-1.345l3.754,1.552c0.439,0.181,0.933,0.181,1.372,0l3.666-1.514l3.665,1.514
		c0.438,0.181,0.932,0.181,1.372,0l3.666-1.514l3.665,1.514c0.439,0.181,0.933,0.181,1.372,0l3.665-1.514l3.664,1.514
		c0.439,0.181,0.933,0.181,1.372,0l3.665-1.514l3.665,1.514c0.22,0.09,0.453,0.135,0.686,0.135c0.232,0,0.467-0.044,0.686-0.135
		l3.665-1.514l3.665,1.514c0.439,0.181,0.933,0.181,1.372,0l3.665-1.514l3.665,1.514c0.438,0.181,0.932,0.181,1.371,0l3.752-1.552
		l4.37,1.345c0.637,0.196,1.33,0.021,1.801-0.449c0.47-0.471,0.64-1.166,0.443-1.804l-1.34-4.311l1.552-3.815
		C87.546,76.342,87.543,75.851,87.363,75.415L87.363,75.415z M82.193,81.047l0.521,1.674l-1.733-0.533
		c-0.398-0.122-0.827-0.101-1.212,0.058l-3.665,1.514l-3.665-1.514c-0.439-0.181-0.932-0.181-1.371,0l-3.665,1.514l-3.665-1.514
		c-0.439-0.185-0.932-0.181-1.371,0l-3.665,1.514l-3.665-1.514c-0.439-0.181-0.934-0.181-1.373,0l-3.664,1.514l-3.664-1.514
		c-0.439-0.185-0.933-0.185-1.372,0l-3.665,1.514l-3.666-1.514c-0.438-0.181-0.932-0.181-1.372,0L32.6,83.76l-3.665-1.514
		c-0.438-0.181-0.931-0.181-1.371,0l-3.666,1.514l-3.666-1.514c-0.22-0.089-0.453-0.137-0.686-0.137
		c-0.177,0-0.355,0.026-0.528,0.079l-1.745,0.537l0.536-1.743c0.123-0.398,0.103-0.826-0.057-1.215l-1.513-3.664l1.513-3.664
		c0.182-0.439,0.182-0.933,0-1.373l-1.513-3.664l1.513-3.666c0.182-0.439,0.182-0.932,0-1.371l-1.513-3.666l1.513-3.665
		c0.182-0.439,0.182-0.932,0-1.371l-1.513-3.662l1.513-3.666c0.182-0.439,0.182-0.933,0-1.371L16.241,41.3l1.513-3.665
		c0.182-0.439,0.182-0.93,0-1.371l-1.513-3.666l1.513-3.666c0.182-0.439,0.182-0.93,0-1.371l-1.514-3.665l1.514-3.666
		c0.16-0.387,0.18-0.815,0.057-1.213l-0.536-1.743l1.744,0.535c0.398,0.122,0.827,0.102,1.214-0.058l3.664-1.514l3.665,1.514
		c0.439,0.181,0.933,0.181,1.372,0l3.665-1.514l3.664,1.514c0.439,0.181,0.932,0.181,1.372,0l3.665-1.514l3.665,1.514
		c0.439,0.181,0.933,0.181,1.372,0l3.664-1.514l3.664,1.514c0.438,0.181,0.932,0.181,1.372,0l3.664-1.514l3.666,1.514
		c0.439,0.181,0.933,0.181,1.373,0l3.664-1.514l3.667,1.514c0.438,0.181,0.932,0.181,1.37,0l3.666-1.514l3.666,1.514
		c0.386,0.16,0.815,0.181,1.214,0.058l1.745-0.535l-0.537,1.741c-0.124,0.4-0.103,0.828,0.057,1.215l1.514,3.662l-1.514,3.666
		c-0.182,0.439-0.182,0.931,0,1.371l1.514,3.666l-1.514,3.666c-0.182,0.438-0.182,0.932,0,1.371l1.514,3.666l-1.514,3.664
		c-0.182,0.439-0.182,0.933,0.001,1.371l1.513,3.664l-1.514,3.666c-0.182,0.439-0.182,0.932,0,1.371l1.514,3.666l-1.514,3.665
		c-0.182,0.439-0.182,0.932,0,1.371l1.514,3.666l-1.514,3.664c-0.182,0.439-0.182,0.934,0,1.373l1.515,3.668l-1.517,3.733
		C82.088,80.223,82.07,80.649,82.193,81.047L82.193,81.047z"/>
</g>
</svg>
