<?xml version="1.0" encoding="utf-8"?>
<!-- Generator: Adobe Illustrator 16.2.0, SVG Export Plug-In . SVG Version: 6.00 Build 0)  -->
<svg version="1.2" baseProfile="tiny" id="Layer_1" xmlns="http://www.w3.org/2000/svg" xmlns:xlink="http://www.w3.org/1999/xlink"
	 x="0px" y="0px" width="100px" height="100px" viewBox="0 0 100 100" xml:space="preserve">
<g>
	<g>
		<g>
			<path fill="#A5A5A5" d="M66.936,63.306H12.5v1.21v1.21v2.419h2.419v-2.419h2.42v2.419h2.419v-2.419h2.42v2.419h2.419v-2.419
				h2.419v2.419h2.42v-2.419h2.419v2.419h2.42v-2.419h2.419v2.419h2.42v-2.419h2.419v2.419h2.419v-2.419h2.42v2.419h2.419v-2.419
				h2.42v2.419h2.419v-2.419h2.419v2.419h2.42v-2.419h2.42v2.419h2.419v-2.419h2.419v2.419h2.42V65.81
				c0.889,0.111,1.744,0.334,2.542,0.673l-1.172,2.03l2.095,1.208l1.165-2.018c0.7,0.534,1.324,1.158,1.858,1.859l-2.018,1.166
				l1.209,2.094l2.029-1.171c0.338,0.797,0.563,1.654,0.674,2.543h-2.335v2.418h2.335c-0.111,0.892-0.336,1.744-0.674,2.543
				l-2.029-1.169l-1.209,2.094l2.018,1.165c-0.533,0.7-1.158,1.324-1.858,1.857l-1.165-2.015l-2.095,1.208l1.172,2.029
				c-0.798,0.338-1.653,0.563-2.542,0.674v-2.336h-2.42v2.418h-2.419v-2.418h-2.419v2.418h-2.42v-2.418h-2.42v2.418h-2.419v-2.418
				H51.21v2.418h-2.42v-2.418h-2.419v2.418h-2.42v-2.418h-2.419v2.418h-2.419v-2.418h-2.42v2.418h-2.419v-2.418h-2.42v2.418h-2.419
				v-2.418h-2.42v2.418h-2.419v-2.418h-2.419v2.418h-2.42v-2.418h-2.419v2.418h-2.42v-2.418H12.5v2.418v1.21v1.21h54.436
				c6.67,0,12.097-5.427,12.097-12.097C79.032,68.733,73.605,63.306,66.936,63.306z"/>
			<path fill="#DA0016" d="M23.387,80.242c2.669,0,4.839-2.169,4.839-4.839c0-2.668-2.17-4.839-4.839-4.839
				c-2.668,0-4.839,2.17-4.839,4.839C18.548,78.073,20.719,80.242,23.387,80.242z M23.387,72.984c1.333,0,2.42,1.085,2.42,2.419
				c0,1.334-1.087,2.419-2.42,2.419c-1.334,0-2.419-1.084-2.419-2.419C20.968,74.069,22.053,72.984,23.387,72.984z"/>
			<path fill="#DA0016" d="M37.903,80.242c2.668,0,4.839-2.169,4.839-4.839c0-2.668-2.171-4.839-4.839-4.839
				s-4.839,2.17-4.839,4.839C33.064,78.073,35.235,80.242,37.903,80.242z M37.903,72.984c1.333,0,2.419,1.085,2.419,2.419
				c0,1.334-1.086,2.419-2.419,2.419c-1.335,0-2.419-1.084-2.419-2.419C35.484,74.069,36.568,72.984,37.903,72.984z"/>
			<path fill="#DA0016" d="M52.419,80.242c2.669,0,4.84-2.169,4.84-4.839c0-2.668-2.171-4.839-4.84-4.839
				c-2.668,0-4.839,2.17-4.839,4.839C47.58,78.073,49.751,80.242,52.419,80.242z M52.419,72.984c1.334,0,2.42,1.085,2.42,2.419
				c0,1.334-1.086,2.419-2.42,2.419S50,76.737,50,75.403C50,74.069,51.085,72.984,52.419,72.984z"/>
			<path fill="#DA0016" d="M66.936,80.242c2.669,0,4.839-2.169,4.839-4.839c0-2.668-2.17-4.839-4.839-4.839s-4.839,2.17-4.839,4.839
				C62.097,78.073,64.267,80.242,66.936,80.242z M66.936,72.984c1.333,0,2.42,1.085,2.42,2.419c0,1.334-1.087,2.419-2.42,2.419
				c-1.335,0-2.419-1.084-2.419-2.419C64.517,74.069,65.601,72.984,66.936,72.984z"/>
			<path fill="#A5A5A5" d="M23.387,51.21h2.42v7.258h12.097V51.21h2.419v-6.049h4.839V29.437h-9.677v-2.421h1.209
				c3.335,0,6.049-2.713,6.049-6.048v-1.21c0-2.919-2.082-5.364-4.839-5.925V12.5h-2.419v3.629h-7.259V12.5h-2.419v6.047h2.419
				v10.889h-9.678v15.725h4.839V51.21z M35.484,18.547h2.419v-2.197c1.404,0.502,2.419,1.833,2.419,3.407v1.21
				c0,2-1.628,3.63-3.629,3.63h-1.209V18.547z M35.484,56.047h-7.259V51.21h7.259V56.047z M37.903,43.953v1.208v3.629H25.807v-3.629
				v-1.208v-2.42h12.097V43.953z M37.903,39.113H25.807v-2.419h12.097V39.113z M30.646,18.547h2.419v10.889h-2.419V18.547z
				 M20.968,42.742V31.855h21.774v10.886h-2.42v-8.468H23.387v8.468H20.968z"/>
			<rect x="28.226" y="43.953" fill="#DA0016" width="2.42" height="2.418"/>
			<rect x="33.064" y="43.953" fill="#DA0016" width="2.42" height="2.418"/>
			<path fill="#A5A5A5" d="M77.822,29.437v-2.421h1.21c3.335,0,6.048-2.713,6.048-6.048v-1.21c0-2.919-2.081-5.364-4.838-5.925V12.5
				h-2.42v3.629h-7.258V12.5h-2.419v6.047h2.419v10.889h-9.677v15.725h4.838v13.307h16.936V45.161H87.5V29.437H77.822z
				 M77.822,18.547h2.42v-2.197c1.404,0.502,2.419,1.833,2.419,3.407v1.21c0,2-1.628,3.63-3.629,3.63h-1.21V18.547z M72.983,18.547
				h2.42v10.889h-2.42V18.547z M80.242,56.047H68.146V50h2.419v2.421h2.419V50h2.42v2.421h2.419V50h2.42V56.047z M80.242,43.953
				v1.208v2.419h-2.42v-2.419h-2.419v2.419h-2.42v-2.419h-2.419v2.419h-2.419v-2.419v-1.208v-2.42h12.097V43.953z M80.242,39.113
				H68.146v-2.419h12.097V39.113z M85.08,42.742h-2.419v-8.468H65.726v8.468h-2.419V31.855H85.08V42.742z"/>
		</g>
	</g>
</g>
</svg>
