<?xml version="1.0" encoding="utf-8"?>
<!-- Generator: Adobe Illustrator 16.2.0, SVG Export Plug-In . SVG Version: 6.00 Build 0)  -->
<svg version="1.2" baseProfile="tiny" id="Layer_1" xmlns="http://www.w3.org/2000/svg" xmlns:xlink="http://www.w3.org/1999/xlink"
	 x="0px" y="0px" width="220px" height="59.666px" viewBox="0 0 220 59.666" xml:space="preserve">
<g>
	<g>
		<g>
			<path fill-rule="evenodd" fill="#FFFFFF" d="M46.266,29.44H46.11v19.254h-6.527V20.929h8.672l7.28,19.137h0.08V20.929h6.521
				v27.766H53.39L46.266,29.44z M46.266,29.44"/>
			<path fill-rule="evenodd" fill="#FFFFFF" d="M23.063,29.44h-0.157v19.254h-6.527V20.929h8.672l7.286,19.137h0.074V20.929h6.529
				v27.766h-8.755L23.063,29.44z M23.063,29.44"/>
			<rect x="8.093" y="20.929" fill-rule="evenodd" fill="#FFFFFF" width="7.478" height="27.766"/>
			<path fill-rule="evenodd" fill="#EA2A2A" d="M153.099,10.499c-17.367,11.678-78.037-11.367-89.817,20.41
				C70.827,3.985,129.575,31.329,153.099,10.499L153.099,10.499z M153.099,10.499"/>
			<path fill-rule="evenodd" fill="#FFFFFF" d="M78.62,20.419c7.94,0,14.376,6.438,14.376,14.377
				c0,7.938-6.436,14.371-14.376,14.371c-7.935,0-14.37-6.434-14.37-14.371C64.25,26.856,70.686,20.419,78.62,20.419L78.62,20.419z
				 M78.62,20.419 M78.62,27.499c4.027,0,7.292,3.275,7.292,7.297c0,4.027-3.265,7.295-7.292,7.295
				c-4.028,0-7.292-3.268-7.292-7.295C71.328,30.774,74.592,27.499,78.62,27.499L78.62,27.499z M78.62,27.499"/>
			<path fill="none" stroke="#EA2A2A" stroke-width="1.9744" d="M78.62,21.28c7.467,0,13.52,6.053,13.52,13.516
				c0,7.461-6.053,13.518-13.52,13.518c-7.468,0-13.518-6.057-13.518-13.518C65.103,27.333,71.152,21.28,78.62,21.28L78.62,21.28z
				 M78.62,21.28"/>
		</g>
	</g>
	<g>
		<path fill="#EA2A2A" d="M95.487,21.56h8.067c3.741,0,6.447,0.547,8.113,1.635c1.667,1.09,2.5,2.813,2.5,5.168
			c0,1.586-0.407,2.906-1.227,3.959c-0.817,1.055-1.994,1.717-3.532,1.988v0.188c1.908,0.359,3.313,1.068,4.21,2.129
			c0.899,1.059,1.35,2.492,1.35,4.303c0,2.439-0.854,4.352-2.558,5.732c-1.703,1.385-4.072,2.074-7.108,2.074h-9.815V21.56z
			 M99.93,32.784h4.276c1.858,0,3.215-0.291,4.068-0.881c0.857-0.588,1.284-1.59,1.284-3c0-1.277-0.461-2.201-1.384-2.771
			c-0.925-0.57-2.389-0.854-4.397-0.854H99.93V32.784z M99.93,36.392v8.607h4.721c1.861,0,3.263-0.357,4.211-1.068
			c0.948-0.713,1.423-1.838,1.423-3.373c0-1.414-0.483-2.461-1.448-3.143c-0.969-0.682-2.438-1.023-4.409-1.023H99.93z"/>
		<path fill="#EA2A2A" d="M116.354,48.735V21.56h4.443v23.365h11.506v3.811H116.354z"/>
		<path fill="#EA2A2A" d="M148.098,48.735h-15.373V21.56h15.373v3.756h-10.932v7.395h10.244v3.719h-10.244v8.533h10.932V48.735z"/>
		<path fill="#EA2A2A" d="M166.567,48.735l-2.714-7.549h-10.392l-2.657,7.549h-4.687l10.169-27.287h4.832l10.17,27.287H166.567z
			 M162.683,37.36l-2.547-7.398c-0.187-0.498-0.443-1.277-0.771-2.344s-0.555-1.846-0.679-2.34c-0.336,1.521-0.825,3.191-1.47,5
			l-2.453,7.082H162.683z"/>
		<path fill="#EA2A2A" d="M182.173,24.979c-2.552,0-4.559,0.906-6.022,2.715c-1.461,1.807-2.193,4.307-2.193,7.49
			c0,3.334,0.703,5.855,2.111,7.564c1.405,1.711,3.44,2.566,6.104,2.566c1.152,0,2.268-0.115,3.348-0.344
			c1.076-0.229,2.198-0.523,3.364-0.883v3.811c-2.131,0.807-4.548,1.207-7.25,1.207c-3.979,0-7.033-1.205-9.164-3.615
			c-2.13-2.408-3.196-5.857-3.196-10.346c0-2.824,0.516-5.297,1.551-7.414c1.035-2.121,2.531-3.744,4.49-4.871
			c1.958-1.127,4.255-1.691,6.896-1.691c2.775,0,5.341,0.582,7.696,1.748l-1.6,3.699c-0.919-0.434-1.887-0.816-2.909-1.145
			C184.377,25.144,183.301,24.979,182.173,24.979z"/>
		<path fill="#EA2A2A" d="M211.907,48.735h-4.46v-12.25h-12.53v12.25h-4.441V21.56h4.441v11.115h12.53V21.56h4.46V48.735z"/>
	</g>
</g>
</svg>
