<?xml version="1.0" encoding="utf-8"?>
<!-- Generator: Adobe Illustrator 16.2.0, SVG Export Plug-In . SVG Version: 6.00 Build 0)  -->
<svg version="1.2" baseProfile="tiny" id="Layer_1" xmlns="http://www.w3.org/2000/svg" xmlns:xlink="http://www.w3.org/1999/xlink"
	 x="0px" y="0px" width="100px" height="100px" viewBox="0 0 100 100" xml:space="preserve">
<g>
	<circle fill="#FFFFFF" stroke="#A5A5A5" stroke-width="2.3" stroke-miterlimit="10" cx="31.383" cy="18.236" r="5.176"/>
	
		<line fill="#FFFFFF" stroke="#A5A5A5" stroke-width="2.3" stroke-miterlimit="10" x1="38.175" y1="18.236" x2="56.856" y2="18.236"/>
</g>
<g>
	<circle fill="#FFFFFF" stroke="#DA0016" stroke-width="2.3" stroke-miterlimit="10" cx="68.385" cy="17.677" r="5.176"/>
	
		<line fill="#FFFFFF" stroke="#A5A5A5" stroke-width="2.3" stroke-miterlimit="10" x1="71.362" y1="22.854" x2="81.087" y2="39.758"/>
</g>
<g>
	<circle fill="#FFFFFF" stroke="#A5A5A5" stroke-width="2.3" stroke-miterlimit="10" cx="68.688" cy="82.325" r="5.176"/>
	
		<line fill="#FFFFFF" stroke="#A5A5A5" stroke-width="2.3" stroke-miterlimit="10" x1="63.207" y1="82.325" x2="43.215" y2="82.325"/>
</g>
<g>
	<circle fill="#FFFFFF" stroke="#A5A5A5" stroke-width="2.3" stroke-miterlimit="10" cx="87.553" cy="49.625" r="5.177"/>
	
		<line fill="#FFFFFF" stroke="#A5A5A5" stroke-width="2.3" stroke-miterlimit="10" x1="84.515" y1="54.683" x2="74.438" y2="71.461"/>
</g>
<g>
	
		<ellipse transform="matrix(-0.5169 -0.856 0.856 -0.5169 -21.7598 151.898)" fill="#FFFFFF" stroke="#DA0016" stroke-width="2.3" stroke-miterlimit="10" cx="31.979" cy="82.089" rx="5.16" ry="5.176"/>
	
		<line fill="#FFFFFF" stroke="#A5A5A5" stroke-width="2.3" stroke-miterlimit="10" x1="28.86" y1="76.925" x2="18.852" y2="60.352"/>
</g>
<g>
	<circle fill="#FFFFFF" stroke="#A5A5A5" stroke-width="2.3" stroke-miterlimit="10" cx="12.446" cy="49.789" r="5.176"/>
	
		<line fill="#FFFFFF" stroke="#A5A5A5" stroke-width="2.3" stroke-miterlimit="10" x1="16.092" y1="44.447" x2="26.807" y2="28.75"/>
</g>
<circle fill="#FFFFFF" stroke="#A5A5A5" stroke-width="2.3" stroke-miterlimit="10" cx="49.883" cy="49.789" r="5.176"/>
<path fill="none" stroke="#A5A5A5" stroke-width="2.3" stroke-miterlimit="10" d="M68.595,49.79
	c0,10.332-8.378,18.712-18.712,18.712"/>
<path fill="none" stroke="#A5A5A5" stroke-width="2.3" stroke-miterlimit="10" d="M61.591,50.223
	c0,6.466-5.242,11.708-11.708,11.708"/>
<path fill="none" stroke="#A5A5A5" stroke-width="2.3" stroke-miterlimit="10" d="M31.172,50.223
	c0-10.335,8.377-18.712,18.711-18.712"/>
<path fill="none" stroke="#A5A5A5" stroke-width="2.3" stroke-miterlimit="10" d="M38.175,49.79c0-6.467,5.242-11.708,11.708-11.708
	"/>
</svg>
