<?xml version="1.0" encoding="utf-8"?>
<!-- Generator: Adobe Illustrator 16.2.0, SVG Export Plug-In . SVG Version: 6.00 Build 0)  -->
<svg version="1.2" baseProfile="tiny" id="Layer_1" xmlns="http://www.w3.org/2000/svg" xmlns:xlink="http://www.w3.org/1999/xlink"
	 x="0px" y="0px" width="100px" height="100px" viewBox="0 0 100 100" xml:space="preserve">
<path fill="#9C9C9C" d="M51.679,75.042L51.679,75.042c-7.962,0-16.628-0.252-25.759-0.745c-5.393-0.294-9.576-4.454-10.172-10.116
	c-0.997-9.454-0.997-18.998,0-28.369c0.594-5.613,4.771-9.772,10.159-10.11c15.748-0.991,31.949-0.991,48.181,0
	c5.451,0.332,9.536,4.392,10.165,10.104c0.993,9.046,0.997,18.59,0.004,28.375c-0.575,5.654-4.655,9.723-10.152,10.116
	C67.182,74.79,59.638,75.042,51.679,75.042L51.679,75.042z M49.815,27.647c-7.935,0-15.923,0.248-23.74,0.741
	c-4.118,0.257-7.191,3.355-7.657,7.705c-0.973,9.185-0.973,18.539,0,27.81c0.466,4.388,3.534,7.483,7.645,7.712
	c9.084,0.488,17.701,0.736,25.614,0.736c7.896,0,15.377-0.244,22.233-0.736c4.147-0.303,7.229-3.395,7.669-7.708
	c0.977-9.595,0.977-18.945,0-27.808c-0.477-4.363-3.557-7.465-7.652-7.711C65.865,27.896,57.753,27.647,49.815,27.647L49.815,27.647
	z"/>
<polygon fill="#DA0016" points="41.14,40.772 41.14,59.228 58.86,50.063 "/>
<path fill="#9C9C9C" d="M50,50"/>
</svg>
