<?xml version="1.0" encoding="utf-8"?>
<!-- Generator: Adobe Illustrator 16.2.0, SVG Export Plug-In . SVG Version: 6.00 Build 0)  -->
<svg version="1.2" baseProfile="tiny" id="Layer_1" xmlns="http://www.w3.org/2000/svg" xmlns:xlink="http://www.w3.org/1999/xlink"
	 x="0px" y="0px" width="100px" height="100px" viewBox="0 0 100 100" xml:space="preserve">
<g>
	<path fill="#DA0016" d="M63.266,51.087H36.992c-1.074,0-1.935,0.86-1.935,1.938c0,1.073,0.86,1.932,1.935,1.932h26.273
		c1.074,0,1.935-0.858,1.935-1.932C65.2,51.947,64.34,51.087,63.266,51.087L63.266,51.087z M63.266,51.087"/>
	<path fill="#DA0016" d="M36.749,44.165h26.271c1.075,0,1.936-0.859,1.936-1.934c0-1.075-0.86-1.938-1.936-1.938H36.749
		c-1.074,0-1.935,0.862-1.935,1.938C34.814,43.306,35.675,44.165,36.749,44.165L36.749,44.165z M36.749,44.165"/>
	<g>
		<path fill="none" d="M66.532,30.305h4.485l-9.157-8.813h-0.014v4.126C61.847,28.213,63.952,30.305,66.532,30.305z"/>
		<path fill="none" d="M30.799,80.957h38.4c2.594,0,4.687-2.105,4.687-4.687V34.16h-7.354c-4.715,0-8.557-3.841-8.557-8.557v-6.735
			H30.799c-2.59,0-4.686,2.107-4.686,4.687v52.716C26.113,78.865,28.221,80.957,30.799,80.957z M36.992,61.865h26.273
			c1.074,0,1.935,0.862,1.935,1.935c0,1.076-0.86,1.936-1.935,1.936H36.992c-1.074,0-1.935-0.859-1.935-1.936
			C35.058,62.728,35.918,61.865,36.992,61.865z"/>
		<path fill="#9C9C9C" d="M36.992,65.735h26.273c1.074,0,1.935-0.859,1.935-1.936c0-1.072-0.86-1.935-1.935-1.935H36.992
			c-1.074,0-1.935,0.862-1.935,1.935C35.058,64.876,35.918,65.735,36.992,65.735z"/>
		<path fill="#9C9C9C" d="M30.799,84.827h38.414c4.635,0,8.419-3.717,8.543-8.325v-44.36c-0.035-0.494-0.238-0.957-0.587-1.307
			l-15.91-15.277c-0.358-0.345-0.845-0.545-1.349-0.545H30.799c-4.713,0-8.555,3.843-8.555,8.556v52.702
			C22.244,80.986,26.086,84.827,30.799,84.827z M61.847,21.492h0.014l9.157,8.813h-4.485c-2.58,0-4.686-2.092-4.686-4.687V21.492z
			 M26.113,23.555c0-2.579,2.096-4.687,4.686-4.687h27.177v6.735c0,4.716,3.842,8.557,8.557,8.557h7.354v42.11
			c0,2.581-2.093,4.687-4.687,4.687h-38.4c-2.578,0-4.686-2.092-4.686-4.687V23.555z"/>
	</g>
</g>
</svg>
