<?xml version="1.0" encoding="utf-8"?>
<!-- Generator: Adobe Illustrator 16.2.0, SVG Export Plug-In . SVG Version: 6.00 Build 0)  -->
<svg version="1.2" baseProfile="tiny" id="Layer_1" xmlns="http://www.w3.org/2000/svg" xmlns:xlink="http://www.w3.org/1999/xlink"
	 x="0px" y="0px" width="100px" height="100px" viewBox="0 0 100 100" xml:space="preserve">
<g>
	<path fill="none" stroke="#9C9C9C" stroke-width="3.8028" stroke-miterlimit="10" d="M40.002,14.999H20.001
		C17.237,14.999,15,17.24,15,20v19.999C15,42.763,17.237,45,20.001,45h20.001C42.763,45,45,42.763,45,39.999V20
		C45,17.24,42.763,14.999,40.002,14.999z"/>
	<path fill="none" stroke="#9C9C9C" stroke-width="3.8028" stroke-miterlimit="10" d="M40.002,55H20.001
		C17.237,55,15,57.241,15,60.002V80c0,2.761,2.237,5.001,5.001,5.001h20.001C42.763,85.001,45,82.761,45,80V60.002
		C45,57.241,42.763,55,40.002,55z"/>
	<path fill="none" stroke="#DA0016" stroke-width="3.8028" stroke-miterlimit="10" d="M79.999,14.999H59.998
		C57.237,14.999,55,17.24,55,20v19.999C55,42.763,57.237,45,59.998,45h20.001C82.763,45,85,42.763,85,39.999V20
		C85,17.24,82.763,14.999,79.999,14.999z"/>
	<path fill="none" stroke="#9C9C9C" stroke-width="3.8028" stroke-miterlimit="10" d="M79.999,55H59.998
		C57.237,55,55,57.241,55,60.002V80c0,2.761,2.237,5.001,4.998,5.001h20.001C82.763,85.001,85,82.761,85,80V60.002
		C85,57.241,82.763,55,79.999,55z"/>
</g>
</svg>
